<?xml version="1.0" standalone="no"?>
<!DOCTYPE svg PUBLIC "-//W3C//DTD SVG 20010904//EN"
 "http://www.w3.org/TR/2001/REC-SVG-20010904/DTD/svg10.dtd">
<svg version="1.0" xmlns="http://www.w3.org/2000/svg"
 width="537.000000pt" height="537.000000pt" viewBox="0 0 537.000000 537.000000"
 preserveAspectRatio="xMidYMid meet">
<metadata>
Created by potrace 1.14, written by Peter Selinger 2001-2017
</metadata>
<g transform="translate(0.000000,537.000000) scale(0.100000,-0.100000)"
fill="#000000" stroke="none">
<path d="M2603 4543 c-37 -15 5 -21 175 -26 125 -3 227 -12 307 -26 144 -26
276 -59 292 -75 11 -10 114 -338 108 -344 -1 -1 -83 26 -181 61 -351 126 -434
147 -584 147 -157 0 -238 -23 -676 -186 -139 -52 -262 -95 -274 -96 -19 -3
-25 9 -60 120 -20 68 -40 125 -43 129 -3 3 -79 -22 -169 -55 -90 -33 -210 -75
-268 -93 -58 -18 -106 -34 -107 -34 -1 -1 45 -156 103 -345 97 -318 105 -350
100 -405 -9 -112 -37 -310 -57 -415 -54 -281 -26 -515 88 -748 44 -91 131
-223 178 -271 l24 -25 123 13 c150 15 464 72 613 110 99 26 107 30 78 36 -29
7 -33 11 -33 40 0 30 3 33 35 39 31 6 35 11 35 36 l0 30 85 0 85 0 0 -30 c0
-25 -4 -30 -24 -30 -19 0 -22 -4 -18 -25 3 -21 9 -24 26 -19 11 3 26 12 32 20
6 8 18 14 26 14 10 0 13 9 10 35 -4 35 -4 35 37 35 l41 0 1 333 c3 629 13 980
27 985 11 4 13 -108 9 -659 l-5 -664 9 525 c4 289 10 601 11 694 2 125 6 170
16 174 8 2 12 -7 12 -27 0 -16 5 -33 10 -36 16 -10 13 -572 -2 -582 -10 -6
-13 -92 -13 -376 0 -342 1 -367 17 -367 17 0 18 26 21 368 l3 367 -1 -376 0
-376 35 8 c19 5 103 26 185 49 388 105 786 155 1035 131 63 -6 124 -13 135
-15 11 -3 26 -5 33 -5 6 -1 12 -10 12 -21 0 -19 -4 -20 -72 -13 -113 12 -432
9 -548 -6 -274 -33 -597 -111 -1020 -246 -364 -117 -716 -190 -1034 -216 -149
-12 -150 -12 -164 9 -13 20 -23 22 -99 22 -81 0 -83 -1 -73 -20 9 -17 8 -20
-13 -20 -48 0 -87 13 -92 30 -3 11 -24 22 -52 29 -26 7 -59 21 -75 32 -17 13
-36 18 -48 14 -13 -4 -22 -1 -25 8 -5 11 -21 10 -93 -10 -48 -12 -103 -23
-122 -22 -25 1 -15 5 35 14 72 14 173 47 260 85 60 26 83 32 90 21 7 -12 -14
-26 -62 -40 -80 -22 -43 -62 85 -92 42 -9 79 -16 81 -13 2 2 -7 21 -21 41 -13
21 -39 62 -58 91 -18 28 -37 52 -41 52 -5 0 -20 20 -35 45 -28 49 -39 57 -29
23 5 -20 4 -21 -5 -6 -13 21 -82 26 -75 5 4 -8 -12 -16 -47 -25 -52 -12 -218
-86 -218 -97 0 -9 50 6 115 35 33 15 76 31 95 35 19 3 43 9 53 11 11 4 20 -2
26 -17 l8 -23 26 27 c15 14 27 22 27 17 0 -15 -51 -50 -89 -59 -20 -6 -65 -13
-101 -16 -168 -16 -261 -52 -230 -90 7 -8 24 -16 39 -16 25 -2 25 -2 2 -6 -14
-3 -35 4 -52 16 l-29 21 -41 -21 c-32 -16 -43 -18 -50 -8 -6 10 -21 6 -66 -14
-79 -35 -134 -47 -223 -46 -56 1 -69 3 -50 10 20 7 16 8 -18 5 -23 -2 -40 -1
-37 4 5 8 -47 22 -54 14 -3 -2 10 -20 28 -38 75 -77 242 -132 378 -123 41 2
73 0 73 -5 0 -31 -75 -119 -124 -145 -18 -9 -26 -10 -21 -3 5 8 3 11 -6 7 -8
-3 -38 -13 -66 -22 -29 -9 -53 -20 -53 -25 0 -15 71 -30 140 -30 112 1 245 40
237 70 -3 13 13 27 60 54 35 20 68 34 73 31 5 -3 23 -31 41 -62 48 -84 60 -93
121 -93 76 0 153 22 153 43 0 12 24 28 76 50 l75 33 49 -63 c42 -55 81 -97 62
-66 -4 7 12 6 41 -3 77 -23 78 -24 63 -33 -14 -9 67 -31 114 -31 15 0 50 -22
92 -58 206 -174 496 -354 803 -496 188 -88 180 -86 381 -86 210 0 205 -1 444
114 376 182 660 374 893 606 95 94 127 117 118 88 -3 -7 -7 -28 -10 -46 l-6
-33 23 27 c20 23 26 25 43 15 17 -11 17 -11 -6 -5 -14 3 -22 3 -17 -1 4 -5 0
-16 -9 -26 -14 -16 -13 -18 8 -33 25 -18 88 -22 88 -6 0 6 43 10 108 10 73 0
102 3 92 10 -8 5 -40 10 -71 10 -79 0 -119 10 -119 28 0 8 3 13 6 9 3 -3 17
-2 30 4 18 6 50 2 116 -15 50 -13 85 -25 78 -28 -8 -2 18 -2 56 0 38 2 75 10
83 17 12 12 9 17 -19 33 -49 30 -150 46 -307 46 -78 1 -137 3 -130 5 6 2 15 9
19 14 24 38 388 31 388 -6 0 -7 14 -20 30 -29 17 -9 35 -29 40 -44 10 -26 12
-27 75 -21 51 4 65 2 65 -9 0 -10 15 -14 60 -14 120 0 246 -44 296 -103 l27
-32 -5 48 c-11 99 -101 194 -226 240 l-64 24 36 21 c69 41 127 55 219 54 79
-2 87 0 87 17 0 39 -116 86 -241 97 -78 8 -139 -1 -139 -20 0 -9 -20 -16 -61
-20 -34 -4 -63 -6 -64 -4 -2 2 2 33 9 69 15 81 7 105 -39 124 -44 19 -55 19
-55 -1 0 -14 -8 -16 -47 -11 -27 4 -76 9 -110 13 -74 8 -74 5 -27 154 51 164
59 224 58 440 0 165 -5 223 -29 375 -25 152 -29 209 -29 370 -1 188 0 191 37
328 20 76 37 153 37 171 0 35 -17 95 -31 110 -15 17 -59 -36 -99 -119 -82
-168 -95 -318 -56 -625 15 -113 34 -234 42 -270 21 -92 30 -357 15 -461 -17
-122 -50 -239 -67 -239 -8 0 -14 -9 -14 -20 0 -11 -1 -20 -2 -20 -13 0 -152
60 -150 64 1 3 2 11 2 16 0 16 35 12 92 -10 61 -23 61 -24 83 74 42 184 44
398 6 586 -15 74 -169 598 -221 753 -7 23 -3 39 25 94 19 36 35 68 35 70 0 3
-12 2 -27 -1 -16 -3 -41 -2 -57 2 -27 7 -31 17 -71 146 l-42 139 -54 21 c-38
16 -55 28 -57 43 -2 15 -19 27 -60 44 -31 12 -138 56 -237 97 -295 122 -489
176 -727 201 -98 11 -372 14 -395 4z m196 -734 c1 -84 -10 -149 -25 -149 -15
0 -24 218 -10 253 8 21 9 20 21 -13 8 -19 14 -60 14 -91z m-196 -170 c38 -36
39 -40 17 -36 -99 21 -156 19 -234 -7 -76 -26 -78 -26 -101 -7 l-25 18 59 27
c72 32 121 44 189 45 49 1 56 -2 95 -40z m546 25 c63 -18 310 -138 331 -161
30 -31 -86 -6 -211 47 -66 28 -144 55 -172 61 -36 6 -61 19 -82 39 l-30 30 56
0 c30 0 79 -7 108 -16z m-440 -13 c8 -5 9 -11 3 -15 -5 -3 -15 1 -22 9 -14 16
-3 20 19 6z m72 -61 c6 0 7 5 4 10 -3 6 -1 10 5 10 7 0 10 -6 8 -12 -6 -17
-31 -17 -34 0 -1 7 0 8 3 2 2 -5 9 -10 14 -10z m-681 -87 l25 -13 -30 -1 c-52
-3 -89 2 -117 17 -16 8 -28 17 -28 19 0 9 125 -9 150 -22z m1476 12 c-10 -8
-24 -11 -30 -8 -6 4 0 10 14 14 36 10 37 10 16 -6z m-1818 -891 c19 -6 22 -13
22 -61 0 -52 -1 -54 -22 -48 -56 17 -118 72 -118 105 0 11 81 14 118 4z m460
0 c20 -6 22 -13 22 -64 0 -56 -1 -58 -32 -70 -40 -15 -222 -25 -272 -16 l-36
7 0 69 c0 57 3 69 18 73 26 7 274 8 300 1z m182 -13 c0 -10 -7 -24 -15 -31
-13 -10 -15 -9 -15 12 0 14 3 28 7 31 12 13 23 7 23 -12z m858 13 c19 -6 22
-13 22 -60 0 -31 -4 -54 -10 -54 -37 0 -140 81 -140 111 0 10 92 12 128 3z
m450 0 c21 -6 23 -11 20 -68 l-3 -61 -50 -12 c-54 -12 -225 -17 -262 -7 -21 6
-23 12 -23 74 0 57 3 69 18 73 26 7 274 8 300 1z m192 -3 c0 -5 -9 -19 -20
-32 l-19 -24 -1 27 c0 23 10 35 33 37 4 1 7 -3 7 -8z m244 -366 c55 -8 101
-17 103 -19 2 -2 -8 -86 -22 -187 -14 -100 -25 -183 -25 -184 0 0 -98 1 -217
3 -398 7 -655 -36 -1168 -198 -502 -159 -765 -210 -1075 -210 l-135 0 -79 151
c-85 164 -85 169 -16 169 47 0 243 26 395 51 259 43 444 90 880 224 591 181
1043 248 1359 200z m259 -67 c26 -11 47 -23 47 -27 0 -20 -49 -353 -52 -357
-6 -5 -130 36 -142 46 -7 7 27 305 41 353 6 22 28 18 106 -15z m310 -233 c27
-4 50 -12 54 -20 2 -8 -3 -73 -12 -146 -17 -124 -19 -130 -39 -125 -12 4 -71
9 -132 13 l-111 6 24 116 c12 64 25 126 28 138 7 30 55 35 188 18z m-4041
-171 c37 -60 68 -112 68 -115 0 -10 -119 -71 -129 -65 -12 8 -104 236 -97 243
18 18 73 52 81 49 5 -1 40 -52 77 -112z m531 -165 c-13 -11 -133 -52 -138 -47
-6 6 -105 292 -102 294 38 25 39 25 144 -109 57 -72 100 -134 96 -138z m2875
226 c91 -7 110 -14 114 -38 4 -30 48 -37 48 -8 0 24 16 23 100 -8 34 -13 46
-23 50 -42 3 -15 20 -39 38 -54 17 -15 32 -31 32 -37 0 -6 -12 3 -28 20 -31
33 -86 64 -149 82 l-42 13 -107 -112 c-70 -73 -110 -108 -115 -100 -4 8 -54
-26 -150 -103 -157 -125 -243 -185 -389 -271 -135 -79 -453 -234 -597 -291
-112 -44 -125 -47 -153 -36 -31 13 -29 8 -95 228 -7 23 -11 42 -9 42 2 0 33
-12 69 -26 l66 -26 97 42 c431 189 812 428 1012 635 l55 57 -155 -5 c-264 -10
-514 -62 -905 -187 -374 -119 -689 -190 -930 -207 -89 -6 -112 -13 -44 -13
l44 0 25 -87 26 -88 99 -59 c101 -60 342 -183 448 -230 51 -22 75 -46 47 -46
-19 0 -284 121 -400 182 -166 88 -240 137 -240 158 0 11 -40 45 -112 96 -86
59 -123 79 -157 83 -25 3 -46 11 -48 17 -2 7 50 13 164 17 92 4 215 14 272 22
214 31 530 111 871 220 420 135 806 189 1148 160z m-2813 -71 c9 -4 48 -70 86
-147 70 -139 70 -139 42 -132 -78 19 -92 33 -154 156 -32 65 -59 121 -59 124
0 7 65 6 85 -1z m3711 -21 c-2 -15 -10 -67 -16 -115 -13 -97 -4 -88 -109 -104
-39 -5 -42 -4 -38 12 3 11 13 65 23 121 l17 102 31 3 c104 10 98 11 92 -19z
m-548 -200 c-15 -2 -42 -2 -60 0 -18 2 -6 4 27 4 33 0 48 -2 33 -4z"/>
<path d="M3757 2219 c-53 -12 -92 -34 -116 -65 -43 -54 -14 -89 83 -99 77 -9
99 -26 70 -55 -10 -10 -38 -23 -60 -28 -39 -9 -43 -8 -53 15 -15 32 -35 24
-39 -15 -3 -32 -3 -32 42 -32 88 0 216 68 216 114 0 28 -37 54 -87 61 -93 12
-103 16 -103 36 0 40 103 67 115 29 11 -35 27 -26 39 23 6 26 5 27 -31 26 -21
-1 -55 -5 -76 -10z"/>
<path d="M3478 2151 c-74 -18 -93 -29 -61 -37 18 -5 21 -16 27 -102 7 -85 5
-98 -10 -109 -30 -22 -10 -24 67 -6 77 17 110 33 71 33 -28 0 -29 4 -36 117
-6 86 -5 92 14 98 22 7 28 26 8 24 -7 -1 -43 -9 -80 -18z"/>
<path d="M3106 2065 c-85 -23 -139 -49 -87 -43 27 3 27 4 34 -124 5 -69 3 -78
-14 -83 -10 -4 -19 -11 -19 -17 0 -5 6 -8 13 -6 6 3 42 11 80 18 37 8 67 17
67 22 0 4 -6 8 -14 8 -14 0 -26 29 -26 68 0 30 14 28 67 -13 59 -45 80 -50
143 -35 51 12 68 30 28 30 -13 0 -46 16 -75 36 l-53 36 33 22 c35 23 47 67 26
92 -17 21 -98 16 -203 -11z m120 -37 c5 -16 0 -27 -20 -45 -41 -35 -63 -30
-69 15 -6 49 -3 52 43 52 31 0 40 -4 46 -22z"/>
<path d="M2898 2016 c-51 -12 -73 -26 -41 -26 27 0 33 -18 33 -101 0 -80 -13
-100 -79 -120 -77 -23 -101 7 -101 127 0 44 3 54 20 59 19 6 29 25 13 25 -33
-1 -148 -39 -151 -50 -3 -9 1 -11 12 -7 12 5 16 0 17 -21 3 -69 10 -126 19
-142 26 -48 148 -45 237 6 53 31 68 72 59 165 -5 62 -4 68 14 74 22 7 28 26 8
24 -7 -1 -34 -6 -60 -13z"/>
<path d="M2485 1920 c-16 -4 -42 -11 -57 -14 -29 -7 -39 -26 -14 -26 22 0 26
-23 26 -136 0 -101 -1 -106 -27 -130 -14 -13 -24 -27 -21 -30 11 -11 89 30
114 59 26 31 27 33 20 142 -6 106 -6 110 16 127 l23 18 -25 -1 c-14 0 -38 -4
-55 -9z"/>
<path d="M2135 1841 c-73 -18 -131 -68 -123 -108 4 -22 40 -39 103 -50 35 -5
51 -13 53 -25 4 -20 -31 -45 -75 -54 -27 -5 -31 -3 -37 23 -7 27 -8 27 -22 9
-8 -11 -14 -28 -14 -38 0 -46 175 -2 214 53 35 51 9 82 -79 93 -27 3 -56 12
-63 20 -11 11 -9 17 14 35 31 24 72 28 80 6 10 -26 32 -17 36 15 4 28 2 30
-26 29 -17 -1 -44 -4 -61 -8z"/>
<path d="M1872 1776 c-57 -14 -78 -26 -45 -26 18 0 21 -9 26 -97 6 -84 4 -98
-11 -110 -15 -13 -13 -14 19 -9 54 9 127 34 103 35 -26 1 -34 33 -34 129 0 50
4 68 18 78 16 13 16 13 -3 13 -11 0 -44 -6 -73 -13z"/>
<path d="M1855 4373 c-133 -55 -175 -76 -175 -89 0 -8 6 -14 13 -14 23 1 240
105 245 118 5 17 -14 14 -83 -15z"/>
<path d="M4703 1483 c9 -2 25 -2 35 0 9 3 1 5 -18 5 -19 0 -27 -2 -17 -5z"/>
</g>
</svg>
