<svg width="395" height="74" viewBox="0 0 395 74" fill="none" xmlns="http://www.w3.org/2000/svg">
<g filter="url(#filter0_d_1_203)">
<rect x="6" width="383" height="62" rx="31" fill="#F4F6F8"/>
<rect x="7.60841" y="1.60841" width="379.783" height="58.7832" rx="29.3916" stroke="#9F2241" stroke-width="3.21681"/>
</g>
<path d="M45.8635 30.0558V33.2711C48.4524 34.7743 50.2062 37.572 50.2062 40.7873C50.2062 45.5755 46.3228 49.4589 41.5347 49.4589C36.7465 49.4589 32.8631 45.5755 32.8631 40.7873C32.8631 37.572 34.603 34.7743 37.2058 33.2711V30.0558C32.9745 31.7678 29.9819 35.9296 29.9819 40.7734C29.9819 47.1622 35.1597 52.3401 41.5486 52.3401C47.9374 52.3401 53.1153 47.1622 53.1153 40.7734C53.0874 35.9157 50.0948 31.7678 45.8635 30.0558Z" fill="#8B1232"/>
<path d="M47.0884 13.353C47.687 13.353 48.1741 12.8658 48.1741 12.2673V11.5435C48.1741 10.945 47.687 10.4578 47.0884 10.4578H42.9684V8.74581C42.9684 8.14729 42.4813 7.66012 41.8827 7.66012H41.1589C40.5604 7.66012 40.0733 8.14729 40.0733 8.74581V35.178C37.5818 35.8183 35.7305 38.0871 35.7305 40.7735C35.7305 43.9609 38.3195 46.5638 41.5208 46.5638C44.7083 46.5638 47.3112 43.9748 47.3112 40.7735C47.3112 38.0732 45.4738 35.8183 42.9684 35.178V22.7623H47.0884C47.687 22.7623 48.1741 22.2751 48.1741 21.6766V20.9528C48.1741 20.3543 47.687 19.8671 47.0884 19.8671H42.9684V17.988H45.279C45.7383 17.988 46.1141 17.6122 46.1141 17.1529V15.9141C46.1141 15.4548 45.7383 15.079 45.279 15.079H42.9684V13.3391L47.0884 13.353Z" fill="#B18147"/>
<path d="M83.4218 27.6013C82.8926 23.7794 79.9527 21.5618 76.1391 21.5618C71.6451 21.5618 68.26 24.8378 68.26 30.3985C68.26 35.9508 71.6031 39.2352 76.1391 39.2352C80.2299 39.2352 82.943 36.5892 83.4218 33.3049L80.2803 33.2881C79.8855 35.304 78.2391 36.438 76.1811 36.438C73.3923 36.438 71.3932 34.3465 71.3932 30.3985C71.3932 26.5177 73.3755 24.359 76.1895 24.359C78.2811 24.359 79.9191 25.5433 80.2803 27.6013H83.4218ZM91.2099 39.252C94.9899 39.252 97.3922 36.5892 97.3922 32.5993C97.3922 28.6009 94.9899 25.9297 91.2099 25.9297C87.43 25.9297 85.0276 28.6009 85.0276 32.5993C85.0276 36.5892 87.43 39.252 91.2099 39.252ZM91.2267 36.816C89.1351 36.816 88.1103 34.9512 88.1103 32.5909C88.1103 30.2305 89.1351 28.3405 91.2267 28.3405C93.2847 28.3405 94.3095 30.2305 94.3095 32.5909C94.3095 34.9512 93.2847 36.816 91.2267 36.816ZM99.4138 39H102.455V31.1545C102.455 29.5669 103.513 28.4917 104.823 28.4917C106.109 28.4917 106.991 29.3569 106.991 30.6841V39H109.972V30.9529C109.972 29.4997 110.838 28.4917 112.308 28.4917C113.534 28.4917 114.508 29.2141 114.508 30.8101V39H117.558V30.3397C117.558 27.4585 115.894 25.9297 113.526 25.9297C111.652 25.9297 110.224 26.8537 109.653 28.2901H109.519C109.023 26.8285 107.772 25.9297 106.033 25.9297C104.303 25.9297 103.009 26.8201 102.471 28.2901H102.32V26.0977H99.4138V39ZM125.795 39.252C128.802 39.252 130.869 37.782 131.406 35.5392L128.567 35.22C128.155 36.312 127.147 36.8832 125.837 36.8832C123.872 36.8832 122.57 35.5896 122.544 33.3805H131.532V32.4481C131.532 27.9205 128.811 25.9297 125.635 25.9297C121.94 25.9297 119.529 28.6429 119.529 32.6245C119.529 36.6732 121.906 39.252 125.795 39.252ZM122.553 31.3309C122.645 29.6845 123.863 28.2985 125.677 28.2985C127.425 28.2985 128.601 29.5753 128.617 31.3309H122.553ZM136.586 31.4401C136.586 29.5753 137.712 28.5001 139.316 28.5001C140.887 28.5001 141.828 29.5333 141.828 31.2553V39H144.868V30.7849C144.877 27.6937 143.113 25.9297 140.45 25.9297C138.518 25.9297 137.191 26.8537 136.603 28.2901H136.452V26.0977H133.545V39H136.586V31.4401ZM147.232 39H157.825V36.48H151.273V36.3708L157.606 28.1725V26.0977H147.451V28.6177H153.885V28.7269L147.232 37.068V39ZM163.836 39.2604C165.86 39.2604 167.07 38.3112 167.624 37.2276H167.725V39H170.648V30.3649C170.648 26.9545 167.868 25.9297 165.407 25.9297C162.694 25.9297 160.611 27.1393 159.939 29.4913L162.778 29.8945C163.08 29.0125 163.937 28.2565 165.424 28.2565C166.835 28.2565 167.608 28.9789 167.608 30.2473V30.2977C167.608 31.1713 166.692 31.2133 164.416 31.4569C161.913 31.7257 159.519 32.4733 159.519 35.3796C159.519 37.9164 161.375 39.2604 163.836 39.2604ZM164.626 37.026C163.357 37.026 162.45 36.4464 162.45 35.3292C162.45 34.1617 163.467 33.6745 164.827 33.4813C165.625 33.3721 167.221 33.1705 167.616 32.8513V34.3717C167.616 35.808 166.457 37.026 164.626 37.026ZM173.147 39H176.187V31.4149C176.187 29.7769 177.422 28.6177 179.094 28.6177C179.606 28.6177 180.245 28.7101 180.505 28.7941V25.9969C180.228 25.9465 179.749 25.9129 179.413 25.9129C177.935 25.9129 176.7 26.7529 176.229 28.2481H176.095V26.0977H173.147V39ZM186.652 24.4094H191.969V39H195.061V24.4094H200.378V21.797H186.652V24.4094ZM200.99 39H204.031V31.4149C204.031 29.7769 205.266 28.6177 206.937 28.6177C207.45 28.6177 208.088 28.7101 208.349 28.7941V25.9969C208.071 25.9465 207.593 25.9129 207.257 25.9129C205.778 25.9129 204.543 26.7529 204.073 28.2481H203.939V26.0977H200.99V39ZM213.268 39.2604C215.292 39.2604 216.502 38.3112 217.056 37.2276H217.157V39H220.08V30.3649C220.08 26.9545 217.3 25.9297 214.839 25.9297C212.126 25.9297 210.043 27.1393 209.371 29.4913L212.21 29.8945C212.512 29.0125 213.369 28.2565 214.856 28.2565C216.267 28.2565 217.04 28.9789 217.04 30.2473V30.2977C217.04 31.1713 216.124 31.2133 213.848 31.4569C211.344 31.7257 208.951 32.4733 208.951 35.3796C208.951 37.9164 210.807 39.2604 213.268 39.2604ZM214.058 37.026C212.789 37.026 211.882 36.4464 211.882 35.3292C211.882 34.1617 212.898 33.6745 214.259 33.4813C215.057 33.3721 216.653 33.1705 217.048 32.8513V34.3717C217.048 35.808 215.889 37.026 214.058 37.026ZM213.806 24.401H216.082L218.661 20.5622H215.687L213.806 24.401ZM222.579 39H225.619V31.1545C225.619 29.5669 226.678 28.4917 227.988 28.4917C229.273 28.4917 230.155 29.3569 230.155 30.6841V39H233.137V30.9529C233.137 29.4997 234.003 28.4917 235.473 28.4917C236.699 28.4917 237.673 29.2141 237.673 30.8101V39H240.722V30.3397C240.722 27.4585 239.059 25.9297 236.69 25.9297C234.817 25.9297 233.389 26.8537 232.818 28.2901H232.684C232.188 26.8285 230.937 25.9297 229.198 25.9297C227.467 25.9297 226.174 26.8201 225.636 28.2901H225.485V26.0977H222.579V39ZM243.248 39H246.289V26.0977H243.248V39ZM244.777 24.2666C245.743 24.2666 246.532 23.5274 246.532 22.6202C246.532 21.7046 245.743 20.9654 244.777 20.9654C243.802 20.9654 243.013 21.7046 243.013 22.6202C243.013 23.5274 243.802 24.2666 244.777 24.2666ZM255.299 26.0977H252.754V23.0066H249.713V26.0977H247.882V28.4497H249.713V35.6232C249.696 38.0508 251.46 39.2436 253.745 39.1764C254.61 39.1512 255.207 38.9832 255.534 38.874L255.022 36.4968C254.854 36.5388 254.509 36.6144 254.131 36.6144C253.367 36.6144 252.754 36.3456 252.754 35.1192V28.4497H255.299V26.0977ZM262.856 39.252C265.863 39.252 267.93 37.782 268.467 35.5392L265.628 35.22C265.217 36.312 264.209 36.8832 262.898 36.8832C260.933 36.8832 259.631 35.5896 259.605 33.3805H268.593V32.4481C268.593 27.9205 265.872 25.9297 262.697 25.9297C259.001 25.9297 256.59 28.6429 256.59 32.6245C256.59 36.6732 258.967 39.252 262.856 39.252ZM259.614 31.3309C259.706 29.6845 260.924 28.2985 262.739 28.2985C264.486 28.2985 265.662 29.5753 265.679 31.3309H259.614ZM281.626 39.252C284.634 39.252 286.7 37.782 287.238 35.5392L284.398 35.22C283.987 36.312 282.979 36.8832 281.668 36.8832C279.703 36.8832 278.401 35.5896 278.376 33.3805H287.364V32.4481C287.364 27.9205 284.642 25.9297 281.467 25.9297C277.771 25.9297 275.36 28.6429 275.36 32.6245C275.36 36.6732 277.737 39.252 281.626 39.252ZM278.384 31.3309C278.476 29.6845 279.694 28.2985 281.509 28.2985C283.256 28.2985 284.432 29.5753 284.449 31.3309H278.384ZM292.417 31.4401C292.417 29.5753 293.543 28.5001 295.147 28.5001C296.718 28.5001 297.659 29.5333 297.659 31.2553V39H300.7V30.7849C300.708 27.6937 298.944 25.9297 296.281 25.9297C294.349 25.9297 293.022 26.8537 292.434 28.2901H292.283V26.0977H289.377V39H292.417V31.4401ZM311.58 21.797H308.54V39H311.58V21.797ZM314.148 39H317.189V26.0977H314.148V39ZM314.509 24.401H316.786L319.364 20.5622H316.391L314.509 24.401ZM322.797 31.4401C322.797 29.5753 323.923 28.5001 325.527 28.5001C327.098 28.5001 328.039 29.5333 328.039 31.2553V39H331.079V30.7849C331.088 27.6937 329.324 25.9297 326.661 25.9297C324.729 25.9297 323.402 26.8537 322.814 28.2901H322.663V26.0977H319.756V39H322.797V31.4401ZM339.323 39.252C342.33 39.252 344.397 37.782 344.934 35.5392L342.095 35.22C341.684 36.312 340.676 36.8832 339.365 36.8832C337.4 36.8832 336.098 35.5896 336.072 33.3805H345.06V32.4481C345.06 27.9205 342.339 25.9297 339.164 25.9297C335.468 25.9297 333.057 28.6429 333.057 32.6245C333.057 36.6732 335.434 39.252 339.323 39.252ZM336.081 31.3309C336.173 29.6845 337.391 28.2985 339.206 28.2985C340.953 28.2985 342.129 29.5753 342.146 31.3309H336.081ZM350.786 39.2604C352.811 39.2604 354.02 38.3112 354.575 37.2276H354.675V39H357.599V30.3649C357.599 26.9545 354.818 25.9297 352.357 25.9297C349.644 25.9297 347.561 27.1393 346.889 29.4913L349.728 29.8945C350.03 29.0125 350.887 28.2565 352.374 28.2565C353.785 28.2565 354.558 28.9789 354.558 30.2473V30.2977C354.558 31.1713 353.642 31.2133 351.366 31.4569C348.863 31.7257 346.469 32.4733 346.469 35.3796C346.469 37.9164 348.325 39.2604 350.786 39.2604ZM351.576 37.026C350.307 37.026 349.4 36.4464 349.4 35.3292C349.4 34.1617 350.417 33.6745 351.777 33.4813C352.575 33.3721 354.171 33.1705 354.566 32.8513V34.3717C354.566 35.808 353.407 37.026 351.576 37.026Z" fill="#4C5566"/>
<defs>
<filter id="filter0_d_1_203" x="0.363631" y="0" width="394.273" height="73.2727" filterUnits="userSpaceOnUse" color-interpolation-filters="sRGB">
<feFlood flood-opacity="0" result="BackgroundImageFix"/>
<feColorMatrix in="SourceAlpha" type="matrix" values="0 0 0 0 0 0 0 0 0 0 0 0 0 0 0 0 0 0 127 0" result="hardAlpha"/>
<feOffset dy="5.63637"/>
<feGaussianBlur stdDeviation="2.81818"/>
<feComposite in2="hardAlpha" operator="out"/>
<feColorMatrix type="matrix" values="0 0 0 0 0 0 0 0 0 0 0 0 0 0 0 0 0 0 0.1 0"/>
<feBlend mode="normal" in2="BackgroundImageFix" result="effect1_dropShadow_1_203"/>
<feBlend mode="normal" in="SourceGraphic" in2="effect1_dropShadow_1_203" result="shape"/>
</filter>
</defs>
</svg>