<?xml version="1.0" encoding="utf-8"?>
<!-- Generator: Adobe Illustrator 24.0.1, SVG Export Plug-In . SVG Version: 6.00 Build 0)  -->
<svg version="1.1" id="Capa_1" xmlns="http://www.w3.org/2000/svg" xmlns:xlink="http://www.w3.org/1999/xlink" x="0px" y="0px"
	 viewBox="0 0 612 169.5" style="enable-background:new 0 0 612 169.5;" xml:space="preserve">
<style type="text/css">
	.st0{fill:#00AE42;}
	.st1{fill:#898D8D;}
</style>
<path class="st0" d="M207.9,93.4c0.8,1.2,1.8,1.7,3.3,1.7c2.1,0,3.4-2,3.4-2l34-43.5c2.8-2.9,5.6-0.6,5.6-0.6
	c2.7,2.8,0.7,5.4,0.7,5.4l-7.6,9.7l0,0.1c-0.7,0.7-1.1,1.6-1.1,2.6c0,0.9,0.3,1.8,0.9,2.4l0,0l7.6,9.7l24.1-30.6l-9.6-12.3l-1.8-2.3
	c-1.6-2.2-5-2.8-5-2.8h-14.4c-3.8,0-5.9,2.6-5.9,2.6l-40.4,51.8L207.9,93.4z"/>
<path class="st0" d="M206.2,66.9l-9.7-12.4c-2-3.2,0.9-5.4,0.9-5.4c3.6-2.1,5.7,1.1,5.7,1.1l8,10.3l9.5-12.2l-10.9-14
	c-2.6-3.7-6.6-3.2-6.6-3.2h-13c-4.2,0-6,2.6-6,2.6l-11.5,14.6L196.7,79L206.2,66.9z"/>
<path class="st0" d="M243.4,77.4c0,0-1.1-1.7-3.3-1.7c-2.2,0-3.1,1.5-3.1,1.5l-34.3,44.1c-2.8,3.1-5.8,0.6-5.8,0.6
	c-2.7-2.8-0.5-5.4-0.5-5.4l7.7-9.9l0-0.1c0.7-0.7,1.1-1.6,1.1-2.6c0-0.9-0.3-1.8-0.9-2.4v0l-7.6-9.7l-24.2,31l13.5,17l21.2,0.1
	l42.6-54.4L243.4,77.4z"/>
<path class="st0" d="M245.2,104l9.7,12.5c2.2,3.1-0.6,5.4-0.6,5.4c-3.7,2.5-6-1.2-6-1.2l-8.1-10.4l-9.5,12.2l13.6,17.5l21-0.1
	l13.5-17.3l-24.1-30.8L245.2,104z"/>
<path class="st0" d="M278.6,90.7c-2.8,0-5.1-2.3-5.1-5.2c0-2.9,2.3-5.2,5.1-5.2c2.8,0,5.1,2.3,5.1,5.2
	C283.8,88.4,281.5,90.7,278.6,90.7 M278.6,75.9c-5.4,0-9.8,4.3-9.8,9.6s4.4,9.6,9.8,9.6c5.4,0,9.8-4.3,9.8-9.6S284,75.9,278.6,75.9"
	/>
<path class="st0" d="M225.6,16.2c2.8,0,5.1,2.3,5.1,5.2s-2.3,5.2-5.1,5.2c-2.8,0-5.1-2.3-5.1-5.2S222.8,16.2,225.6,16.2 M225.6,31
	c5.4,0,9.8-4.3,9.8-9.6s-4.4-9.6-9.8-9.6c-5.4,0-9.8,4.3-9.8,9.6S220.2,31,225.6,31"/>
<path class="st0" d="M167.3,85.5c0-2.9,2.3-5.2,5.1-5.2c2.8,0,5.1,2.3,5.1,5.2c0,2.9-2.3,5.2-5.1,5.2
	C169.7,90.7,167.3,88.3,167.3,85.5 M182.2,85.5c0-5.3-4.4-9.6-9.8-9.6c-5.4,0-9.8,4.3-9.8,9.6c0,5.3,4.4,9.6,9.8,9.6
	C177.9,95.1,182.2,90.8,182.2,85.5"/>
<path class="st0" d="M225.6,154.8c-2.8,0-5.1-2.3-5.1-5.2c0-2.9,2.3-5.2,5.1-5.2c2.8,0,5.1,2.3,5.1,5.2
	C230.8,152.5,228.5,154.8,225.6,154.8 M225.6,140c-5.4,0-9.8,4.3-9.8,9.6c0,5.3,4.4,9.6,9.8,9.6c5.4,0,9.8-4.3,9.8-9.6
	C235.4,144.3,231,140,225.6,140"/>
<path class="st1" d="M123.7,21.3H11.5v74.8c0,41.1,56.1,53.4,56.1,53.4h0.1c0,0,56.1-12.4,56.1-53.4V21.3z M121,24.1v72.1
	c0,8.7-2.7,16.8-8.2,24c-4.4,5.8-10.6,11.1-18.4,15.7c-11.9,7-24.1,10.3-26.8,10.9c-2.7-0.7-14.7-3.9-26.7-10.9
	c-7.8-4.6-14-9.9-18.5-15.7c-5.4-7.2-8.2-15.3-8.2-24V24.1H121z"/>
<path class="st1" d="M81.2,45.3v-6.9h-7.1v6.4h-2.8v-6.4h-7.3v6.4h-2.8v-6.4h-7.2v6.9l3.5,6c0.1,0.2,0.2,0.4,0.2,0.7l0,31.5h3.4
	l0-11.3c0-2.7,3-5.1,6.4-5.1c3.3,0,6.4,2.4,6.4,5.1l0,11.3h3.5l0-11.9c0-0.1,0-0.1,0-0.2v-5.9c0,0,0-0.1,0-0.1l0-4.3c0,0,0,0,0,0
	v-1.9l0-7.2c0-0.2,0.1-0.5,0.2-0.7L81.2,45.3z"/>
<path class="st1" d="M55.1,84.2l0-10.4l-1.3,0.8c-0.5,0.3-1,0.3-1.5,0l-1.5-1c0,0,0,0.1,0,0.1l-0.1,4c0,0.4-0.2,0.8-0.5,1.1
	c0.2,0.1,0.3,0.1,0.4,0.2c1.8,1.5,2,3.6,1.6,5.3H55.1z"/>
<path class="st1" d="M67.6,69.8c-2.1,0-3.6,1.5-3.6,2.3l0,11.3h7.2l0-11.3C71.2,71.4,69.7,69.8,67.6,69.8"/>
<path class="st1" d="M25.5,84.2c-0.4-0.9-0.7-1.9-0.9-3.2c-0.3-2.2-0.3-4.2-0.3-4.3c0-0.6,0.4-1.1,1-1.3l3-0.9l-3.4-2.4
	c-0.4-0.3-0.6-0.7-0.6-1.1v-3.8c0-0.5,0.3-1,0.7-1.2l1.3-0.7V64l-1.2-0.5c-0.5-0.2-0.9-0.7-0.9-1.3l0-4.6c0-0.8,0.6-1.4,1.4-1.4
	l4.3,0c-0.1-1.1-0.1-2.7,0.2-3.9c0.4-1.7,1.3-3.6,1.8-4.4l-0.2-1.6c-0.1-0.4,0.1-0.8,0.3-1.1c0.3-0.3,0.6-0.5,1-0.5h2.3
	c0.3,0,0.5,0.1,0.7,0.2l5.6,3.6h2.6c0.4,0,0.7,0.2,1,0.4c0.3,0.3,0.4,0.6,0.4,1l-0.2,4.4c0,0.4-0.2,0.7-0.4,1l1.7,0
	c0.4,0,0.7,0.2,1,0.4l0.8,0.8l0.6-0.5l1-2.1c0.2-0.5,0.7-0.8,1.2-0.8h3.7l0-0.8l-3.5-6c-0.1-0.2-0.2-0.5-0.2-0.7V37
	c0-0.8,0.6-1.4,1.4-1.4h8.6h2.8h7.3h2.8h8.4c0.8,0,1.4,0.6,1.4,1.4v8.6c0,0.2-0.1,0.5-0.2,0.7l-3.6,6l0,0.8h3.6c0.5,0,1,0.3,1.2,0.8
	l1,2.1l0.6,0.5l0.8-0.8c0.3-0.3,0.6-0.4,1-0.4l1.7,0c-0.3-0.2-0.4-0.6-0.4-1l-0.2-4.4c0-0.4,0.1-0.7,0.4-1c0.3-0.3,0.6-0.4,1-0.4
	h2.6l5.6-3.6c0.2-0.1,0.5-0.2,0.7-0.2h2.3c0.4,0,0.8,0.2,1,0.5c0.3,0.3,0.4,0.7,0.3,1.1l-0.2,1.6c0.5,0.8,1.4,2.7,1.8,4.4
	c0.3,1.3,0.3,2.8,0.2,3.9l4.3,0c0.8,0,1.4,0.6,1.4,1.4l0,4.6c0,0.6-0.3,1.1-0.9,1.3l-1.2,0.5v1.3l1.3,0.7c0.5,0.2,0.7,0.7,0.7,1.2
	V71c0,0.4-0.2,0.9-0.6,1.1l-3.4,2.4l3,0.9c0.6,0.2,0.9,0.7,1,1.3c0,0.1,0.1,2.1-0.3,4.3c-0.2,1.2-0.5,2.3-0.9,3.2h5c0,0,0,0,0.1,0
	V30.9H20.5v53.3H25.5z"/>
<path class="st1" d="M84.5,78.9c0.1-0.1,0.3-0.2,0.4-0.2c-0.3-0.3-0.5-0.6-0.5-1.1l-0.1-4c0,0,0-0.1,0-0.1l-1.5,1
	c-0.4,0.3-1,0.3-1.5,0l-1.2-0.7l0,10.4H83C82.6,82.5,82.7,80.4,84.5,78.9"/>
<path class="st1" d="M102.9,112.7c-0.8,0-1.4-0.6-1.4-1.4v-9c0-0.7-0.4-1.5-1-2.1c-0.5-0.5-1.4-1.1-2.8-1.1c-2.1,0-3.4,1.7-3.6,3.3
	v8.9c0,0.4-0.1,0.7-0.4,1c-0.3,0.3-0.6,0.4-1,0.4h-8.2c-0.8,0-1.4-0.6-1.4-1.4v-9c0-0.7-0.4-1.5-1-2.1c-0.5-0.5-1.4-1.1-2.8-1.1
	c-0.9,0-1.8,0.4-2.4,1l6.7,34.4c9.5-4.2,20.7-11.1,26.8-21.7H102.9z"/>
<path class="st1" d="M80.9,135.3L71.5,87h-7.7l-9.5,48.3c0,0.1,0,0.1-0.1,0.2c6.6,2.7,11.9,4.1,13.4,4.5c1.5-0.5,6.8-1.8,13.4-4.5
	C81,135.5,81,135.4,80.9,135.3"/>
<path class="st1" d="M58.4,100c-0.6-0.6-1.4-0.9-2.3-0.9c0,0,0,0-0.1,0c-1.3,0-2.2,0.6-2.8,1.1c-0.6,0.6-1,1.4-1,2.1v9
	c0,0.8-0.6,1.4-1.4,1.4h-8.2c-0.4,0-0.7-0.1-1-0.4c-0.3-0.3-0.4-0.6-0.4-1v-8.9c-0.2-1.6-1.4-3.3-3.6-3.3c0,0,0,0-0.1,0
	c-1.3,0-2.2,0.6-2.8,1.1c-0.6,0.6-1,1.4-1,2.1v9c0,0.8-0.6,1.4-1.4,1.4h-7.5c6.1,10.6,17.3,17.5,26.7,21.7L58.4,100z"/>
<path class="st1" d="M114.7,87H74.3l2,10.1c0.9-0.5,1.9-0.7,2.9-0.8c1.8,0,3.5,0.6,4.8,1.9c1.2,1.1,1.9,2.7,1.9,4.1v7.6h5.4v-7.6
	c0,0,0-0.1,0-0.1c0.3-3.3,3-5.8,6.3-5.9c1.8,0,3.5,0.6,4.8,1.9c1.2,1.1,1.9,2.7,1.9,4.1v7.6h7.5c1.9-4.1,3-8.8,3-14L114.7,87
	C114.8,87,114.7,87,114.7,87"/>
<path class="st1" d="M31.1,110v-7.6c0-1.4,0.7-2.9,1.9-4.1c1.3-1.3,3-1.9,4.8-1.9c3.3,0.1,6,2.6,6.3,5.9c0,0,0,0.1,0,0.1v7.6h5.4
	v-7.6c0-1.4,0.7-2.9,1.9-4.1c1.3-1.3,3-1.9,4.8-1.9c1,0,2,0.3,2.9,0.7L61,87H20.5v9c0,5.2,1.1,9.9,3,14H31.1z"/>
<path class="st1" d="M34.3,81.4h2.2c0.2,0.3,0.3,0.6,0.3,0.9c0,0.2,0,0.4,0,0.6c0,0.5-0.1,1-0.2,1.4h-7.8c-1.1-0.8-1.7-3.8-1.7-6.4
	l3.4-1.1c0.6-0.2,1-0.7,1-1.3v-1.3c0-0.4-0.2-0.9-0.6-1.1l-3.8-2.7v-2.3l1.3-0.7c0.5-0.2,0.7-0.7,0.7-1.2v-3.1
	c0-0.6-0.3-1.1-0.9-1.3l-1.2-0.5l0-2.3l3.6,0l1.7,2.8l0,3.9l-1.2,3.7c-0.1,0.4-0.1,0.9,0.2,1.2c0.3,0.4,0.7,0.6,1.1,0.6h1
	c0.7,0,1.3-0.5,1.4-1.2c0.1-0.6,0.4-2.4,0.7-3.2c0.2-0.6,1.2-1.9,1.8-2.7c0.4-0.5,0.4-1.3,0-1.8L32.8,57c-0.1-0.8-0.3-2.8,0-4.1
	c0.3-1.5,1.4-3.4,1.7-4c0.2-0.3,0.2-0.6,0.2-0.9l-0.1-0.5H35l5.6,3.6c0.2,0.1,0.5,0.2,0.7,0.2h1.5l-0.1,2.1L41,53.9
	c-0.5,0.2-0.9,0.7-0.9,1.3l0,1.4c0,0.8,0.6,1.4,1.4,1.4l4.7,0l1.2,1.3c0.5,0.5,1.3,0.6,1.8,0.1c0,0,2.1-1.7,2.2-1.9l0.8-1.6H55v3.2
	l0,1.8c0,0-5,1.7-5.5,1.9c-0.3,0.2-0.5,1.7-0.5,2.1c0.1,0.4,0,0.5,0.6,0.9c0,0,1.5,1.2,1.9,1.3l1.5-1.4L55,66l0,4.7l-1.9,1.1l-5.8-4
	c-0.6-0.4-1.4-0.3-1.9,0.3l-0.9,1.2c-0.4,0.6-0.4,1.4,0.1,1.9l3.3,3.1l0,2.5l-3.3,1.5c-0.5,0.2-0.8,0.7-0.8,1.3V80
	c0,0.8,0.6,1.4,1.4,1.4h4c0.7,0.9,0.4,2.1,0.1,2.8h-9.2c-0.3-0.3-0.5-0.9-0.5-1.6c0-0.2,0-0.4,0-0.5c0-0.9,0.1-1.8,0.2-2.3l2.1-2.7
	c0.2-0.2,0.3-0.5,0.3-0.8l0.1-1.3c0-0.5-0.2-0.9-0.6-1.2c-0.4-0.3-0.9-0.3-1.3-0.2L37,75c-0.5,0.2-0.8,0.6-0.8,1.1l-0.2,1.4l-2,0.6
	c-0.6,0.2-1,0.7-1,1.3V80C32.9,80.7,33.5,81.4,34.3,81.4"/>
<path class="st1" d="M100.9,81.4h-2.2c-0.2,0.3-0.3,0.6-0.3,0.9c0,0.2,0,0.4,0,0.6c0,0.5,0.1,1,0.2,1.4h7.8c1.1-0.8,1.7-3.8,1.7-6.4
	l-3.4-1.1c-0.6-0.2-1-0.7-1-1.3v-1.3c0-0.4,0.2-0.9,0.6-1.1l3.8-2.7v-2.3l-1.3-0.7c-0.5-0.2-0.7-0.7-0.7-1.2v-3.1
	c0-0.6,0.3-1.1,0.9-1.3l1.2-0.5l0-2.3l-3.6,0l-1.7,2.8l0,3.9l1.2,3.7c0.1,0.4,0.1,0.9-0.2,1.2c-0.3,0.4-0.7,0.6-1.1,0.6h-1
	c-0.7,0-1.3-0.5-1.4-1.2c-0.1-0.6-0.4-2.4-0.7-3.2c-0.2-0.6-1.2-1.9-1.8-2.7c-0.4-0.5-0.4-1.3,0-1.8l4.7-5.4c0.1-0.8,0.3-2.8,0-4.1
	c-0.3-1.5-1.4-3.4-1.7-4c-0.2-0.3-0.2-0.6-0.2-0.9l0.1-0.5h-0.3L94.6,51c-0.2,0.1-0.5,0.2-0.7,0.2h-1.5l0.1,2.1l1.8,0.7
	c0.5,0.2,0.9,0.7,0.9,1.3l0,1.4c0,0.8-0.6,1.4-1.4,1.4L89,58l-1.2,1.3c-0.5,0.5-1.3,0.6-1.8,0.1c0,0-2.1-1.7-2.2-1.9L83,55.9h-2.8
	v3.2l0,1.8c0,0,5,1.7,5.5,1.9c0.3,0.2,0.5,1.7,0.5,2.1c-0.1,0.4,0,0.5-0.6,0.9c0,0-1.5,1.2-1.9,1.3l-1.5-1.4L80.2,66l0,4.7l1.9,1.1
	l5.8-4c0.6-0.4,1.4-0.3,1.9,0.3l0.9,1.2c0.4,0.6,0.4,1.4-0.1,1.9l-3.3,3.1l0,2.5l3.3,1.5c0.5,0.2,0.8,0.7,0.8,1.3V80
	c0,0.8-0.6,1.4-1.4,1.4h-4c-0.7,0.9-0.4,2.1-0.1,2.8H95c0.3-0.3,0.5-0.9,0.5-1.6c0-0.2,0-0.4,0-0.5c0-0.9-0.1-1.8-0.2-2.3l-2.1-2.7
	c-0.2-0.2-0.3-0.5-0.3-0.8L92.9,75c0-0.5,0.2-0.9,0.6-1.2c0.4-0.3,0.9-0.3,1.3-0.2l3.5,1.4c0.5,0.2,0.8,0.6,0.8,1.1l0.2,1.4l2,0.6
	c0.6,0.2,1,0.7,1,1.3V80C102.3,80.7,101.7,81.4,100.9,81.4"/>
<path class="st1" d="M317.9,69.1L317.9,69.1c0-5.3,3.9-9.9,9.6-9.9c3.2,0,5.2,0.9,7.1,2.5l-1.4,1.6c-1.5-1.3-3.1-2.2-5.8-2.2
	c-4.2,0-7.3,3.6-7.3,7.8v0.1c0,4.6,2.9,7.9,7.6,7.9c2.2,0,4.2-0.8,5.5-1.9v-4.8h-5.8v-1.9h7.9V76c-1.8,1.6-4.5,2.9-7.7,2.9
	C321.6,79,317.9,74.6,317.9,69.1"/>
<path class="st1" d="M359.6,69.1L359.6,69.1c0-4.4-3.2-7.9-7.5-7.9c-4.4,0-7.5,3.5-7.5,7.8v0.1c0,4.3,3.2,7.9,7.5,7.9
	C356.5,77,359.6,73.5,359.6,69.1 M342.4,69.1L342.4,69.1c0-5.3,4-9.9,9.8-9.9c5.8,0,9.7,4.6,9.7,9.8v0.1c0,5.3-4,9.9-9.8,9.9
	C346.3,79,342.4,74.4,342.4,69.1"/>
<path class="st1" d="M377.8,70h-6v6.7h6.4c2.9,0,4.7-1.3,4.7-3.4v-0.1C382.9,71.2,381.1,70,377.8,70 M381.8,64.6
	c0-1.9-1.5-3.1-4.2-3.1h-5.8V68h5.7C380,68,381.8,66.9,381.8,64.6L381.8,64.6z M369.6,59.5h8.1c2.2,0,3.9,0.6,5,1.7
	c0.8,0.8,1.2,1.8,1.2,3.1v0.1c0,2.5-1.5,3.8-3,4.4c2.3,0.7,4.1,2,4.1,4.6v0.1c0,3.3-2.8,5.2-6.9,5.2h-8.5V59.5z"/>
<rect x="392.8" y="59.5" class="st1" width="2.2" height="19.1"/>
<polygon class="st1" points="403.6,59.5 417.5,59.5 417.5,61.5 405.8,61.5 405.8,68 416.2,68 416.2,70 405.8,70 405.8,76.7 
	417.6,76.7 417.6,78.6 403.6,78.6 "/>
<path class="st1" d="M432.8,69.3c2.9,0,4.9-1.5,4.9-3.9v-0.1c0-2.3-1.8-3.8-4.9-3.8h-5.9v7.8H432.8z M424.8,59.5h8.2
	c2.3,0,4.2,0.7,5.4,1.9c0.9,0.9,1.5,2.3,1.5,3.8v0.1c0,3.2-2.2,5-5.2,5.6l5.9,7.8h-2.6l-5.5-7.4h-5.5v7.4h-2.2V59.5z"/>
<polygon class="st1" points="447.7,59.5 449.7,59.5 461.7,74.8 461.7,59.5 463.8,59.5 463.8,78.6 462.1,78.6 449.8,63 449.8,78.6 
	447.7,78.6 "/>
<path class="st1" d="M488.8,69.1L488.8,69.1c0-4.4-3.2-7.9-7.5-7.9c-4.4,0-7.5,3.5-7.5,7.8v0.1c0,4.3,3.2,7.9,7.5,7.9
	C485.7,77,488.8,73.5,488.8,69.1 M471.6,69.1L471.6,69.1c0-5.3,4-9.9,9.8-9.9c5.8,0,9.7,4.6,9.7,9.8v0.1c0,5.3-4,9.9-9.8,9.9
	C475.5,79,471.6,74.4,471.6,69.1"/>
<path class="st1" d="M510.9,61.5v15.1h4.5c4.8,0,7.9-3.3,7.9-7.5v-0.1c0-4.2-3.1-7.6-7.9-7.6H510.9z M508.7,59.5h6.6
	c6,0,10.2,4.1,10.2,9.5v0.1c0,5.4-4.2,9.6-10.2,9.6h-6.6V59.5z"/>
<polygon class="st1" points="532.4,59.5 546.2,59.5 546.2,61.5 534.5,61.5 534.5,68 545,68 545,70 534.5,70 534.5,76.7 546.3,76.7 
	546.3,78.6 532.4,78.6 "/>
<polygon class="st1" points="563.5,59.5 565.7,59.5 565.7,76.6 576.4,76.6 576.4,78.6 563.5,78.6 "/>
<path class="st1" d="M595,71.6l-4.3-9.7l-4.4,9.7H595z M589.7,59.4h2l8.7,19.3h-2.3l-2.2-5.1h-10.4l-2.3,5.1H581L589.7,59.4z"/>
<path class="st1" d="M317.5,101.9L317.5,101.9c0-5.5,4.1-9.9,10-9.9c3.6,0,5.8,1.2,7.5,2.9l-2.7,3.1c-1.5-1.3-3-2.2-4.9-2.2
	c-3.2,0-5.5,2.7-5.5,6v0.1c0,3.3,2.3,6,5.5,6c2.2,0,3.5-0.9,5-2.2l2.7,2.7c-2,2.1-4.2,3.4-7.8,3.4
	C321.7,111.7,317.5,107.4,317.5,101.9"/>
<rect x="338.6" y="92.3" class="st1" width="4.2" height="19.1"/>
<path class="st1" d="M347.7,103.2V92.3h4.2v10.8c0,3.1,1.6,4.7,4.1,4.7c2.6,0,4.1-1.6,4.1-4.6v-11h4.2v10.8c0,5.8-3.2,8.6-8.4,8.6
	C350.8,111.7,347.7,108.8,347.7,103.2"/>
<path class="st1" d="M376.6,107.6c3.4,0,5.8-2.3,5.8-5.7v-0.1c0-3.4-2.3-5.8-5.8-5.8h-3.2v11.5H376.6z M369.1,92.3h7.5
	c6,0,10.2,4.1,10.2,9.5v0.1c0,5.4-4.2,9.6-10.2,9.6h-7.5V92.3z"/>
<path class="st1" d="M400.5,103.4l-2.5-6.2l-2.5,6.2H400.5z M396.1,92.2h3.9l8.2,19.3h-4.4l-1.7-4.3h-8.1l-1.7,4.3h-4.3L396.1,92.2z
	"/>
<path class="st1" d="M418.6,107.6c3.4,0,5.8-2.3,5.8-5.7v-0.1c0-3.4-2.3-5.8-5.8-5.8h-3.2v11.5H418.6z M411.2,92.3h7.5
	c6,0,10.2,4.1,10.2,9.5v0.1c0,5.4-4.2,9.6-10.2,9.6h-7.5V92.3z"/>
<path class="st1" d="M448.5,107.6c3.4,0,5.8-2.3,5.8-5.7v-0.1c0-3.4-2.3-5.8-5.8-5.8h-3.2v11.5H448.5z M441,92.3h7.5
	c6,0,10.2,4.1,10.2,9.5v0.1c0,5.4-4.2,9.6-10.2,9.6H441V92.3z"/>
<polygon class="st1" points="462.6,92.3 477,92.3 477,96 466.8,96 466.8,99.9 475.8,99.9 475.8,103.7 466.8,103.7 466.8,107.7 
	477.2,107.7 477.2,111.4 462.6,111.4 "/>
<polygon class="st1" points="489.4,92.3 493.9,92.3 498.9,100.4 504,92.3 508.5,92.3 508.5,111.4 504.3,111.4 504.3,98.9 
	498.9,107.1 498.8,107.1 493.5,99 493.5,111.4 489.4,111.4 "/>
<path class="st1" d="M521.5,86l3.6,1.6l-3.5,3.3h-3.2L521.5,86z M513.5,92.3h14.4V96h-10.2v3.9h9v3.7h-9v4h10.4v3.7h-14.6V92.3z"/>
<polygon class="st1" points="537.4,101.7 531,92.3 536,92.3 540,98.5 544,92.3 548.8,92.3 542.4,101.6 549.1,111.4 544.1,111.4 
	539.9,104.9 535.5,111.4 530.8,111.4 "/>
<rect x="552.3" y="92.3" class="st1" width="4.2" height="19.1"/>
<path class="st1" d="M560.6,101.9L560.6,101.9c0-5.5,4.1-9.9,10-9.9c3.6,0,5.8,1.2,7.5,2.9l-2.7,3.1c-1.5-1.3-3-2.2-4.9-2.2
	c-3.2,0-5.5,2.7-5.5,6v0.1c0,3.3,2.3,6,5.5,6c2.2,0,3.5-0.9,5-2.2l2.7,2.7c-2,2.1-4.2,3.4-7.8,3.4
	C564.7,111.7,560.6,107.4,560.6,101.9"/>
<path class="st1" d="M596.1,101.9L596.1,101.9c0-3.3-2.4-6.1-5.8-6.1c-3.4,0-5.7,2.7-5.7,6v0.1c0,3.3,2.4,6,5.8,6
	C593.8,107.9,596.1,105.2,596.1,101.9 M580.2,101.9L580.2,101.9c0-5.5,4.3-9.9,10.2-9.9c5.9,0,10.1,4.4,10.1,9.8v0.1
	c0,5.4-4.3,9.9-10.2,9.9C584.4,111.7,580.2,107.3,580.2,101.9"/>
</svg>
