<svg width="221" height="55" viewBox="0 0 221 55" fill="none" xmlns="http://www.w3.org/2000/svg">
<mask id="mask0" style="mask-type:alpha" maskUnits="userSpaceOnUse" x="0" y="3" width="42" height="49">
<path fill-rule="evenodd" clip-rule="evenodd" d="M0 3.51376H41.9737V51.1656H0V3.51376Z" fill="white"/>
</mask>
<g mask="url(#mask0)">
<path fill-rule="evenodd" clip-rule="evenodd" d="M40.9717 4.62712V31.4591C40.9717 34.6879 39.9696 37.6939 37.9656 40.366C36.2955 42.5927 33.9575 44.4854 31.0628 46.2668C26.6093 48.8275 22.0445 50.0522 21.0425 50.3862C20.0405 50.1636 15.4757 48.9389 11.0223 46.3781C8.12753 44.7081 5.78947 42.704 4.11943 40.4773C2.11538 37.8053 1.00202 34.7992 1.00202 31.5704V4.62712H40.9717ZM41.9737 3.51376H0V31.3478C0 46.6008 20.9312 51.1656 20.9312 51.1656C20.9312 51.1656 41.8623 46.6008 41.8623 31.3478C41.9737 31.3478 41.9737 3.51376 41.9737 3.51376Z" fill="#B18147"/>
</g>
<path fill-rule="evenodd" clip-rule="evenodd" d="M26.0526 12.4696V9.90891H23.3806V12.247H22.3786V9.90891H19.7065V12.247H18.7045V9.90891H16.0324V12.4696L17.3684 14.6964C17.3684 14.8077 17.4798 14.8077 17.4798 14.919V26.6093H18.7045V22.3785C18.7045 21.3765 19.8178 20.4858 21.0425 20.4858C22.2672 20.4858 23.3806 21.3765 23.3806 22.3785V26.6093H24.7166V22.1559V22.0445V19.8178V18.2591V17.5911V14.919C24.7166 14.8077 24.7166 14.6964 24.8279 14.6964L26.0526 12.4696ZM16.2551 26.9433V23.0466L15.8097 23.3806C15.5871 23.4919 15.3644 23.4919 15.253 23.3806L14.6964 23.0466V24.4939C14.6964 24.6053 14.585 24.8279 14.4737 24.9393C14.585 24.9393 14.585 24.9393 14.585 25.0506C15.253 25.6073 15.3644 26.3866 15.1417 27.0547C15.253 26.9433 16.2551 26.9433 16.2551 26.9433Z" fill="#B18147"/>
<path fill-rule="evenodd" clip-rule="evenodd" d="M20.9312 21.5992C20.1518 21.5992 19.5952 22.1559 19.5952 22.4899V26.7206H22.2672V22.4899C22.3786 22.1559 21.8219 21.5992 20.9312 21.5992Z" fill="#B18147"/>
<path fill-rule="evenodd" clip-rule="evenodd" d="M5.2328 26.9433C5.12146 26.6093 5.01013 26.164 4.89879 25.7186C4.78746 24.9393 4.78746 24.1599 4.78746 24.1599C4.78746 23.9373 4.89879 23.7146 5.12146 23.7146L6.23482 23.3806L5.01013 22.4899C4.89879 22.3786 4.78746 22.2672 4.78746 22.0445V20.5972C4.78746 20.3745 4.89879 20.2632 5.01013 20.1518L5.56681 19.9292V19.4838L5.12146 19.2611C4.89879 19.1498 4.78746 19.0385 4.78746 18.8158V17.1458C4.78746 16.8118 5.01013 16.5891 5.34414 16.5891H6.90284C6.90284 16.1437 6.90284 15.5871 7.01418 15.1417C7.12551 14.4737 7.45952 13.6943 7.68219 13.3603L7.57086 12.8037C7.57086 12.4696 7.68219 12.247 8.0162 12.247C8.0162 12.247 8.0162 12.247 8.12754 12.247H8.90689C9.01823 12.247 9.12956 12.247 9.12956 12.3583L11.2449 13.6943H12.247C12.3583 13.6943 12.4696 13.8057 12.581 13.8057C12.6923 13.917 12.6923 14.0284 12.6923 14.1397L12.581 15.8097C12.581 15.9211 12.4696 16.0324 12.3583 16.1437H13.0263C13.1377 16.1437 13.249 16.2551 13.3603 16.2551L13.6943 16.5891L13.917 16.3664L14.251 15.5871C14.3624 15.3644 14.4737 15.253 14.6964 15.253H16.0324V14.919L14.6964 12.6923C14.6964 12.581 14.585 12.4696 14.585 12.4696V9.35224C14.585 9.01823 14.8077 8.79556 15.1417 8.79556H26.2753C26.6093 8.79556 26.832 9.01823 26.832 9.35224V12.581C26.832 12.6923 26.832 12.8037 26.7207 12.8037L25.3846 15.0304V15.3644H26.7207C26.9433 15.3644 27.0547 15.4757 27.166 15.6984L27.5 16.4777L27.7227 16.7004L28.0567 16.3664C28.168 16.2551 28.2794 16.2551 28.3907 16.2551H29.0587C28.9474 16.1437 28.9474 16.0324 28.9474 15.9211L28.836 14.251C28.836 13.917 29.0587 13.6943 29.2814 13.6943H30.2834L32.3988 12.3583C32.5101 12.3583 32.6215 12.247 32.6215 12.247H33.5122C33.8462 12.247 34.0688 12.4696 34.0688 12.8037C34.0688 12.8037 34.0688 12.8037 34.0688 12.915L34.2915 13.3603C34.5142 13.6943 34.8482 14.3624 34.9595 15.0304C35.0709 15.4757 35.0709 16.0324 35.0709 16.4777H36.6296C36.9636 16.4777 37.1862 16.7004 37.1862 17.0344V18.7045C37.1862 18.9271 37.0749 19.1498 36.8522 19.1498L36.4069 19.3725V19.8178L36.8522 20.0405C37.0749 20.1518 37.0749 20.2632 37.0749 20.4858V21.9332C37.0749 22.0445 36.9636 22.2672 36.8522 22.3786L35.6275 23.3806L36.7409 23.7146C36.9636 23.8259 37.0749 23.9373 37.0749 24.1599C37.0749 24.1599 37.0749 24.9393 36.9636 25.7186C36.8522 26.164 36.7409 26.498 36.6296 26.9433H38.5223V7.12552H3.34009V26.9433H5.2328Z" fill="#B18147"/>
<path fill-rule="evenodd" clip-rule="evenodd" d="M27.2773 24.9393L27.3887 24.8279C27.2773 24.7166 27.166 24.6053 27.166 24.3826V22.9352L26.7206 23.3806C26.498 23.4919 26.3866 23.4919 26.164 23.3806L25.7186 23.1579V27.0546H26.7206C26.6093 26.2753 26.6093 25.4959 27.2773 24.9393ZM34.1802 37.5202C33.8462 37.5202 33.6235 37.2976 33.6235 36.9636V33.6235C33.6235 33.4008 33.5121 33.0668 33.2895 32.8441C32.9555 32.6214 32.6215 32.3988 32.1761 32.3988C31.3968 32.3988 30.9514 33.0668 30.8401 33.6235V36.9636C30.8401 37.2976 30.6174 37.5202 30.2834 37.5202H27.166C26.832 37.5202 26.6093 37.2976 26.6093 36.9636V33.6235C26.6093 33.4008 26.498 33.0668 26.2753 32.8441C25.9413 32.6214 25.6073 32.3988 25.1619 32.3988C24.8279 32.3988 24.4939 32.5101 24.2713 32.7328L26.9433 45.6478C30.5061 44.0891 34.7368 41.5283 36.9636 37.5202H34.1802ZM25.9413 45.9818L22.3785 28.0567H19.4838L15.9211 45.9818C15.9211 45.9818 15.9211 45.9818 15.9211 46.0931C18.3704 47.0951 20.3745 47.6518 20.9312 47.7631C21.5992 47.5405 23.6032 46.9838 25.9413 45.9818ZM17.5911 32.8441C17.3684 32.6214 17.0344 32.5101 16.7004 32.5101C16.1437 32.5101 15.8097 32.7328 15.6984 32.9555C15.4757 33.1781 15.3644 33.5121 15.3644 33.7348V37.0749C15.3644 37.4089 15.1417 37.6316 14.8077 37.6316H11.6903C11.3563 37.6316 11.1336 37.4089 11.1336 37.0749V33.7348C11.0223 33.1781 10.5769 32.5101 9.79757 32.5101C9.24089 32.5101 8.90689 32.7328 8.79555 32.9555C8.57288 33.1781 8.46154 33.5121 8.46154 33.7348V37.0749C8.46154 37.4089 8.23887 37.6316 7.90486 37.6316H5.12146C7.34818 41.5283 11.5789 44.0891 15.1417 45.6478C15.0304 45.6478 17.5911 32.8441 17.5911 32.8441Z" fill="#B18147"/>
<path fill-rule="evenodd" clip-rule="evenodd" d="M38.6336 27.9453H23.4919L24.2713 31.7308C25.2733 31.2854 26.3866 31.3967 27.166 32.1761C27.6113 32.6214 27.834 33.1781 27.834 33.7348V36.6295H29.8381V33.8461C29.9494 32.6214 30.9514 31.7307 32.1761 31.6194C32.8441 31.6194 33.5121 31.8421 33.9575 32.2874C34.4028 32.7328 34.6255 33.2895 34.6255 33.8461V36.6295H37.4089C38.1883 34.9595 38.5223 33.1781 38.5223 31.3967L38.6336 27.9453ZM7.34818 36.5182V33.6235C7.34818 33.0668 7.57086 32.5101 8.0162 32.0648C8.46154 31.6194 9.12956 31.3967 9.79758 31.3967C11.0223 31.3967 12.0243 32.3988 12.1356 33.6235V36.4069H14.1397V33.6235C14.1397 33.0668 14.3624 32.5101 14.8077 32.0648C15.253 31.6194 15.9211 31.3967 16.5891 31.3967C16.9231 31.3967 17.3684 31.5081 17.7024 31.6194L18.4818 27.834H3.34009V31.1741C3.34009 33.1781 3.78543 34.8482 4.45345 36.4069C4.45345 36.5182 7.34818 36.5182 7.34818 36.5182ZM8.57288 25.8299H9.46357C9.5749 25.9413 9.57491 26.0526 9.57491 26.1639V26.3866C9.57491 26.6093 9.5749 26.7206 9.46357 26.9433H6.4575C6.01215 26.6093 5.78948 25.4959 5.78948 24.6052L7.12551 24.1599C7.34818 24.0486 7.45952 23.9372 7.45952 23.7146V23.2692C7.45952 23.1579 7.34818 22.9352 7.23685 22.8239L5.78948 21.8218V20.9312L6.23482 20.7085C6.4575 20.5971 6.4575 20.4858 6.4575 20.2631V19.1498C6.4575 18.9271 6.34616 18.7044 6.12349 18.7044L5.67814 18.4818V17.5911H7.01418L7.79353 18.5931V20.0405L7.34818 21.3765C7.23685 21.5992 7.45952 21.9332 7.68219 22.0445H7.79353H8.23887C8.46154 22.0445 8.68422 21.8218 8.79555 21.5992C8.79555 21.3765 8.90689 20.7085 9.01823 20.3745C9.12956 20.1518 9.46357 19.7065 9.68624 19.3725C9.79758 19.1498 9.79758 18.9271 9.68624 18.7044L7.90486 16.7004C7.90486 16.3664 7.79353 15.6984 7.90486 15.1417C8.0162 14.585 8.46154 13.917 8.57288 13.6943C8.68422 13.583 8.68422 13.4716 8.68422 13.3603V13.1376H8.79555L10.9109 14.4737C11.0223 14.4737 11.1336 14.585 11.1336 14.585H11.6903V15.3644L11.0223 15.587C10.7996 15.6984 10.6883 15.8097 10.6883 16.0324V16.5891C10.6883 16.9231 10.9109 17.1457 11.2449 17.1457H13.0263L13.4717 17.5911C13.6943 17.8137 13.917 17.8137 14.1397 17.5911C14.1397 17.5911 14.919 16.9231 15.0304 16.9231L15.3644 16.3664H16.3664V18.2591C16.3664 18.2591 14.4737 18.9271 14.3624 18.9271C14.251 19.0384 14.1397 19.5951 14.1397 19.7065C14.1397 19.8178 14.1397 19.9291 14.3624 20.0405C14.3624 20.0405 14.919 20.4858 15.0304 20.4858L15.587 19.9291H16.3664V21.7105L15.587 22.2672L13.4717 20.8198C13.249 20.7085 12.915 20.7085 12.8036 20.9312L12.4696 21.3765C12.3583 21.5992 12.3583 21.9332 12.4696 22.0445L13.6943 23.1579V24.0486L12.4696 24.6052C12.247 24.7166 12.1356 24.8279 12.1356 25.0506V25.2733C12.1356 25.6073 12.3583 25.8299 12.6923 25.8299H14.1397C14.3624 26.1639 14.251 26.6093 14.1397 26.9433H10.6883C10.5769 26.832 10.4656 26.6093 10.4656 26.3866C10.4656 26.2753 10.4656 26.2753 10.4656 26.1639C10.4656 25.8299 10.4656 25.6073 10.5769 25.2733L11.3563 24.2712C11.4676 24.1599 11.4676 24.0486 11.4676 23.9372V23.4919C11.4676 23.1579 11.2449 22.9352 11.0223 22.9352C10.9109 22.9352 10.9109 22.9352 10.7996 22.9352L9.46357 23.4919C9.2409 23.6032 9.12956 23.7146 9.12956 23.9372V24.4939L8.35021 24.7166C8.12754 24.8279 8.0162 24.9393 8.0162 25.1619V25.3846C8.0162 25.6073 8.23887 25.8299 8.57288 25.8299ZM33.4008 25.8299H32.5101C32.3988 25.9413 32.3988 26.0526 32.3988 26.1639C32.3988 26.2753 32.3988 26.2753 32.3988 26.3866C32.3988 26.6093 32.3988 26.7206 32.5101 26.9433H35.4049C35.8502 26.6093 36.0729 25.4959 36.0729 24.6052L34.7368 24.1599C34.5142 24.0486 34.4028 23.9372 34.4028 23.7146V23.2692C34.4028 23.1579 34.5142 22.9352 34.6255 22.8239L36.0729 21.8218V20.9312L35.6275 20.7085C35.4049 20.5971 35.4049 20.4858 35.4049 20.2631V19.1498C35.4049 18.9271 35.5162 18.7044 35.7389 18.7044L36.1842 18.4818V17.5911H34.8482L34.1802 18.5931V20.0405L34.6255 21.3765C34.6255 21.4878 34.6255 21.7105 34.5142 21.8218C34.4028 21.9332 34.2915 22.0445 34.0688 22.0445H33.6235C33.4008 22.0445 33.1781 21.8218 33.0668 21.5992C33.0668 21.3765 32.9555 20.7085 32.8441 20.3745C32.7328 20.1518 32.3988 19.7065 32.1761 19.3725C32.0648 19.1498 32.0648 18.9271 32.1761 18.7044L33.9575 16.7004C33.9575 16.3664 34.0688 15.6984 33.9575 15.1417C33.8462 14.585 33.4008 13.917 33.2895 13.6943C33.1781 13.583 33.1781 13.4716 33.1781 13.3603V13.1376H33.0668L30.9514 14.4737C30.8401 14.4737 30.7287 14.585 30.7287 14.585H30.1721V15.3644L30.8401 15.587C31.0628 15.6984 31.1741 15.8097 31.1741 16.0324V16.5891C31.1741 16.9231 30.9514 17.1457 30.6174 17.1457H28.836L28.3907 17.5911C28.168 17.8137 27.9453 17.8137 27.7227 17.5911C27.7227 17.5911 26.9433 16.9231 26.832 16.9231L26.7207 16.3664H25.7186V18.2591C25.7186 18.2591 27.6113 18.9271 27.7227 18.9271C27.834 19.0384 27.9453 19.5951 27.9453 19.7065C27.9453 19.8178 27.9453 19.9291 27.7227 20.0405C27.7227 20.0405 27.166 20.4858 27.0547 20.4858L26.498 19.9291H25.7186V21.7105L26.3866 22.1559L28.502 20.7085C28.7247 20.5971 29.0587 20.5971 29.17 20.8198L29.5041 21.2652C29.6154 21.4878 29.6154 21.8218 29.5041 21.9332L28.2794 23.0465V23.9372L29.5041 24.4939C29.7267 24.6052 29.8381 24.7166 29.8381 24.9393V25.1619C29.8381 25.4959 29.6154 25.7186 29.2814 25.7186H27.834C27.6113 26.0526 27.7227 26.498 27.834 26.832H31.2854C31.3968 26.7206 31.5081 26.498 31.5081 26.2753C31.5081 26.1639 31.5081 26.1639 31.5081 26.0526C31.5081 25.7186 31.5081 25.4959 31.3968 25.1619L30.6174 24.1599C30.5061 24.0486 30.5061 23.9372 30.5061 23.8259V23.3805C30.5061 23.1579 30.6174 23.0465 30.7287 22.9352C30.8401 22.8239 31.0628 22.8239 31.1741 22.9352L32.5101 23.4919C32.7328 23.6032 32.8441 23.7146 32.8441 23.9372L32.9555 24.4939L33.7348 24.7166C33.9575 24.8279 34.0688 24.9393 34.0688 25.1619V25.3846C33.9575 25.6073 33.7348 25.8299 33.4008 25.8299Z" fill="#B18147"/>
<path fill-rule="evenodd" clip-rule="evenodd" d="M69.585 13.917C70.921 13.1376 71.7004 14.3623 71.7004 14.3623L74.7065 18.1478L78.2692 13.583L74.1498 8.3502C73.1478 7.01417 71.7004 7.1255 71.7004 7.1255H66.8016C65.2429 7.1255 64.5749 8.12753 64.5749 8.12753L60.2328 13.583L69.251 25.0506L72.8138 20.5972L69.251 16.0324C68.4717 14.6964 69.585 13.917 69.585 13.917ZM96.417 9.01822L95.749 8.23886C95.1923 7.34817 93.8563 7.23684 93.8563 7.23684H88.5121C87.0648 7.23684 86.2854 8.23886 86.2854 8.23886L71.1437 27.3887L73.4818 30.3947C73.8158 30.8401 74.1498 31.0627 74.7065 31.0627C75.4858 31.0627 75.9312 30.3947 75.9312 30.3947L88.6235 14.251C89.6255 13.1376 90.7389 14.0283 90.7389 14.0283C91.7409 15.0304 90.9615 16.0324 90.9615 16.0324L88.1781 19.5951C87.6214 20.1518 87.6215 20.9312 88.0668 21.4878L90.9615 25.0506L99.9798 13.6943L96.417 9.01822Z" fill="#8B1232"/>
<path fill-rule="evenodd" clip-rule="evenodd" d="M60.2328 23.8259C58.2288 23.8259 56.5587 25.3846 56.5587 27.3887C56.5587 29.3927 58.2288 30.9514 60.2328 30.9514C62.2369 30.9514 63.9069 29.3927 63.9069 27.3887C63.9069 25.3846 62.2369 23.8259 60.2328 23.8259ZM60.2328 29.2814C59.1194 29.2814 58.3401 28.3907 58.3401 27.3887C58.3401 26.2753 59.2308 25.496 60.2328 25.496C61.3462 25.496 62.1255 26.3866 62.1255 27.3887C62.1255 28.502 61.2348 29.2814 60.2328 29.2814ZM80.0506 47.7632C78.0466 47.7632 76.3765 49.4332 76.3765 51.3259C76.3765 53.33 78.0466 54.8887 80.0506 54.8887C82.0547 54.8887 83.7247 53.33 83.7247 51.3259C83.7247 49.4332 82.0547 47.7632 80.0506 47.7632ZM80.0506 53.33C78.9373 53.33 78.1579 52.4393 78.1579 51.4373C78.1579 50.4352 79.0486 49.5445 80.0506 49.5445C81.0526 49.5445 81.9433 50.4352 81.9433 51.4373C82.0547 52.4393 81.164 53.33 80.0506 53.33ZM80.0506 0C78.0466 0 76.3765 1.5587 76.3765 3.56275C76.3765 5.5668 78.0466 7.12551 80.0506 7.12551C82.0547 7.12551 83.7247 5.45547 83.7247 3.56275C83.7247 1.5587 82.0547 0 80.0506 0ZM80.0506 5.5668C78.9373 5.5668 78.1579 4.67611 78.1579 3.67409C78.1579 2.56073 79.0486 1.78138 80.0506 1.78138C81.164 1.78138 81.9433 2.67207 81.9433 3.67409C82.0547 4.67611 81.164 5.5668 80.0506 5.5668ZM99.8684 23.8259C97.8644 23.8259 96.1943 25.3846 96.1943 27.3887C96.1943 29.3927 97.8644 30.9514 99.8684 30.9514C101.872 30.9514 103.543 29.3927 103.543 27.3887C103.543 25.496 101.872 23.8259 99.8684 23.8259ZM99.8684 29.3927C98.7551 29.3927 97.9757 28.502 97.9757 27.5C97.9757 26.3866 98.8664 25.6073 99.8684 25.6073C100.982 25.6073 101.761 26.498 101.761 27.5C101.872 28.502 100.982 29.3927 99.8684 29.3927ZM90.9615 29.7267L87.3988 34.1802L91.0729 38.8563C91.9636 39.9696 90.8502 40.8603 90.8502 40.8603C89.4028 41.751 88.6235 40.415 88.6235 40.415L85.6174 36.5182L81.9433 41.1943L87.0648 47.6518H94.9697L99.9798 41.1943L90.9615 29.7267ZM86.7308 24.3826C86.7308 24.3826 86.2854 23.7146 85.5061 23.7146C84.6154 23.7146 84.3927 24.2713 84.3927 24.2713L71.4777 40.749C70.4757 41.8624 69.3624 40.9717 69.3624 40.9717C68.3603 39.9696 69.1397 38.9676 69.1397 38.9676L72.0344 35.2935C72.5911 34.7368 72.5911 33.9575 72.1458 33.4008L69.251 29.8381L60.2328 41.3057L65.2429 47.6518H73.1478L89.0688 27.3887L86.7308 24.3826Z" fill="#8B1232"/>
<path fill-rule="evenodd" clip-rule="evenodd" d="M114.565 21.3765C114.565 19.3725 116.012 17.7024 118.128 17.7024C119.352 17.7024 120.132 18.0364 120.8 18.7045L120.243 19.2611C119.686 18.8158 119.13 18.4818 118.016 18.4818C116.457 18.4818 115.344 19.8178 115.344 21.3765C115.344 23.0466 116.457 24.3826 118.128 24.3826C118.907 24.3826 119.575 24.1599 120.243 23.7146V21.9332H118.016V21.2652H121.022V24.0486C120.243 24.7166 119.241 25.1619 118.128 25.1619C116.012 24.9393 114.565 23.3806 114.565 21.3765Z" fill="#8B1232"/>
<path fill-rule="evenodd" clip-rule="evenodd" d="M127.48 17.5911C125.253 17.5911 123.806 19.2611 123.806 21.2652C123.806 23.2692 125.253 24.9393 127.48 24.9393C129.706 24.9393 131.154 23.2692 131.154 21.2652C131.043 19.3725 129.595 17.5911 127.48 17.5911ZM130.263 21.3765C130.263 23.0466 129.038 24.2713 127.48 24.2713C125.81 24.2713 124.696 22.9352 124.696 21.3765C124.696 19.7065 125.921 18.4818 127.48 18.4818C129.038 18.3704 130.263 19.7065 130.263 21.3765Z" fill="#8B1232"/>
<path fill-rule="evenodd" clip-rule="evenodd" d="M138.168 21.1538C138.725 20.9312 139.281 20.3745 139.281 19.4838C139.281 19.0385 139.17 18.5931 138.836 18.3704C138.391 17.9251 137.834 17.7024 136.943 17.7024H133.937V24.8279H137.055C138.613 24.8279 139.615 24.1599 139.615 22.9352C139.727 21.9332 139.059 21.4879 138.168 21.1538ZM134.717 18.4818H136.943C137.945 18.4818 138.502 18.9271 138.502 19.5951C138.502 20.3745 137.834 20.8198 136.832 20.8198H134.717V18.4818ZM138.947 22.8239C138.947 23.6032 138.279 24.0486 137.166 24.0486H134.717V21.4879H136.943C138.279 21.5992 138.947 22.0445 138.947 22.8239Z" fill="#8B1232"/>
<mask id="mask1" style="mask-type:alpha" maskUnits="userSpaceOnUse" x="0" y="0" width="221" height="55">
<path fill-rule="evenodd" clip-rule="evenodd" d="M0 55H220.334V0H0V55Z" fill="white"/>
</mask>
<g mask="url(#mask1)">
<path fill-rule="evenodd" clip-rule="evenodd" d="M216.549 29.8381C214.322 29.8381 212.763 31.5081 212.763 33.5121C212.763 35.5162 214.322 37.1862 216.549 37.1862C218.775 37.1862 220.334 35.5162 220.334 33.5121C220.334 31.3968 218.775 29.8381 216.549 29.8381ZM218.664 33.5121C218.664 34.7368 217.773 35.7389 216.549 35.7389C215.324 35.7389 214.433 34.7368 214.433 33.5121C214.433 32.2875 215.324 31.2854 216.549 31.2854C217.773 31.2854 218.664 32.2875 218.664 33.5121ZM210.982 34.8482C210.425 35.4049 209.98 35.6275 209.089 35.6275C207.864 35.6275 206.974 34.6255 206.974 33.4008C206.974 32.1761 207.864 31.1741 209.089 31.1741C209.757 31.1741 210.425 31.5081 210.982 31.9534L211.984 30.8401C211.316 30.1721 210.536 29.7267 209.2 29.7267C206.974 29.7267 205.526 31.3968 205.526 33.4008C205.526 35.4049 207.085 37.0749 209.2 37.0749C210.536 37.0749 211.427 36.6296 212.095 35.8502L210.982 34.8482ZM202.298 29.9494V37.0749H203.856V29.9494H202.298ZM198.512 33.4008L200.962 29.9494H199.18L197.621 32.2875L196.174 29.9494H194.281L196.619 33.4008L194.17 36.9636H195.951L197.621 34.5142L199.18 36.9636H201.073L198.512 33.4008ZM190.719 27.6113L189.605 29.3927H190.83L192.166 28.168L190.719 27.6113ZM189.271 35.6275V34.1802H192.611V32.8441H189.271V31.3968H193.057V30.0607H187.713V37.1862H193.168V35.6275H189.271ZM184.15 29.9494L182.257 32.9555L180.364 29.9494H178.694V37.0749H180.253V32.5101L182.257 35.5162L184.261 32.5101V37.1862H185.82V30.0607H184.15V29.9494ZM170.344 35.6275V34.1802H173.684V32.8441H170.344V31.3968H174.13V30.0607H168.785V37.1862H174.241V35.6275H170.344ZM163.441 29.9494H160.658V37.0749H163.441C165.668 37.0749 167.227 35.5162 167.227 33.5121C167.227 31.5081 165.668 29.9494 163.441 29.9494ZM165.557 33.5121C165.557 34.7368 164.666 35.6275 163.441 35.6275H162.217V31.2854H163.441C164.777 31.3968 165.557 32.2875 165.557 33.5121ZM152.308 29.9494H149.524V37.0749H152.308C154.534 37.0749 156.093 35.5162 156.093 33.5121C156.093 31.5081 154.534 29.9494 152.308 29.9494ZM154.423 33.5121C154.423 34.7368 153.532 35.6275 152.308 35.6275H151.083V31.2854H152.308C153.532 31.3968 154.423 32.2875 154.423 33.5121ZM145.294 29.8381H143.846L140.729 36.9636H142.287L142.955 35.4049H145.962L146.63 36.9636H148.3L145.294 29.8381ZM143.623 34.0688L144.625 31.7308L145.628 34.0688H143.623ZM136.609 29.9494H133.826V37.0749H136.609C138.836 37.0749 140.395 35.5162 140.395 33.5121C140.395 31.5081 138.836 29.9494 136.609 29.9494ZM138.725 33.5121C138.725 34.7368 137.834 35.6275 136.609 35.6275H135.385V31.2854H136.609C137.834 31.3968 138.725 32.2875 138.725 33.5121ZM130.374 29.9494V34.0688C130.374 35.1822 129.818 35.7389 128.816 35.7389C127.814 35.7389 127.257 35.1822 127.257 33.9575V29.9494H125.698V33.9575C125.698 36.0729 126.923 37.0749 128.816 37.0749C130.708 37.0749 131.933 35.9615 131.933 33.8462V29.8381H130.374V29.9494ZM122.358 29.9494V37.0749H123.917V29.9494H122.358ZM120.02 34.8482C119.464 35.4049 118.907 35.6275 118.128 35.6275C116.903 35.6275 116.012 34.6255 116.012 33.4008C116.012 32.1761 116.903 31.1741 118.128 31.1741C118.796 31.1741 119.352 31.5081 119.909 31.9534L120.911 30.8401C120.243 30.1721 119.464 29.7267 118.128 29.7267C115.901 29.7267 114.342 31.3968 114.342 33.4008C114.342 35.4049 115.901 37.0749 118.016 37.0749C119.352 37.0749 120.243 36.6296 120.911 35.8502L120.02 34.8482ZM216.994 17.7024H216.215L212.986 24.8279H213.765L214.656 22.9352H218.553L219.443 24.8279H220.334L216.994 17.7024ZM214.99 22.2672L216.66 18.7045L218.219 22.2672H214.99ZM207.308 24.1599V17.8138H206.528V24.9393H211.316V24.1599H207.308ZM195.617 24.1599V21.7105H199.514V20.9312H195.617V18.4818H199.96V17.8138H194.838V24.9393H200.071V24.1599H195.617ZM188.492 17.8138H185.931V24.9393H188.381C190.607 24.9393 192.166 23.3806 192.166 21.3765C192.277 19.2611 190.719 17.8138 188.492 17.8138ZM191.387 21.3765C191.387 22.9352 190.273 24.1599 188.381 24.1599H186.711V18.4818H188.381C190.273 18.4818 191.387 19.7065 191.387 21.3765ZM175.688 17.5911C173.462 17.5911 172.014 19.2611 172.014 21.2652C172.014 23.2692 173.462 24.9393 175.688 24.9393C177.915 24.9393 179.362 23.2692 179.362 21.2652C179.362 19.3725 177.915 17.5911 175.688 17.5911ZM178.472 21.3765C178.472 23.0466 177.358 24.2713 175.688 24.2713C174.018 24.2713 172.905 22.9352 172.905 21.3765C172.905 19.7065 174.018 18.4818 175.688 18.4818C177.358 18.3704 178.472 19.7065 178.472 21.3765ZM168.34 17.8138V23.4919L163.887 17.8138H163.107V24.9393H163.887V19.1498L168.451 24.9393H169.119V17.8138H168.34ZM158.32 21.9332C159.433 21.7105 160.324 21.0425 160.324 19.8178C160.324 19.2611 160.101 18.8158 159.767 18.3704C159.322 17.9251 158.654 17.7024 157.763 17.7024H154.646V24.8279H155.425V22.0445H157.429L159.545 24.8279H160.547L158.32 21.9332ZM155.425 21.3765V18.4818H157.652C158.765 18.4818 159.433 19.0385 159.433 19.9292C159.433 20.8198 158.654 21.3765 157.652 21.3765H155.425ZM147.52 24.1599V21.7105H151.417V20.9312H147.52V18.4818H151.862V17.8138H146.741V24.9393H151.974V24.1599H147.52ZM142.621 17.8138V24.9393H143.401V17.8138H142.621Z" fill="#8B1232"/>
</g>
</svg>
